<?xml version="1.0" encoding="UTF-8"?>
<svg version="1.1" xmlns="http://www.w3.org/2000/svg" width="229" height="229">
<path d="M0 0 C1.03083206 -0.00428513 2.06166412 -0.00857025 3.12373352 -0.01298523 C5.30147571 -0.01871594 7.47923703 -0.01923809 9.65698242 -0.01489258 C12.95981246 -0.01174587 16.26173453 -0.0351622 19.56445312 -0.06054688 C21.68880097 -0.06282156 23.81315119 -0.06352258 25.9375 -0.0625 C26.91184494 -0.07170975 27.88618988 -0.08091949 28.89006042 -0.09040833 C41.48388204 -0.00702785 52.99564394 4.44395898 64.11328125 10.05078125 C64.80760254 10.40076172 65.50192383 10.75074219 66.21728516 11.11132812 C79.33928698 17.82561636 90.87423838 25.90484327 100.30078125 37.30078125 C101.57057798 38.69755765 102.84140178 40.09340109 104.11328125 41.48828125 C106.56164441 44.27151022 108.27954367 46.66971431 109.30078125 50.30078125 C109.96078125 50.30078125 110.62078125 50.30078125 111.30078125 50.30078125 C112.13897283 51.92328066 112.97119285 53.54886622 113.80078125 55.17578125 C114.26484375 56.08070312 114.72890625 56.985625 115.20703125 57.91796875 C116.30078125 60.30078125 116.30078125 60.30078125 116.30078125 62.30078125 C116.96078125 62.30078125 117.62078125 62.30078125 118.30078125 62.30078125 C118.71070313 63.46996094 119.120625 64.63914062 119.54296875 65.84375 C120.0871834 67.39194684 120.63145735 68.94012282 121.17578125 70.48828125 C121.57990234 71.64166992 121.57990234 71.64166992 121.9921875 72.81835938 C123.0739669 75.89219597 124.16072232 78.95063393 125.37109375 81.9765625 C125.67789063 82.74355469 125.9846875 83.51054688 126.30078125 84.30078125 C126.64447754 85.10990967 126.98817383 85.91903809 127.34228516 86.75268555 C128.66893505 91.66358796 128.58646955 96.32959488 128.56640625 101.39453125 C128.5683197 102.45941772 128.57023315 103.5243042 128.57220459 104.62145996 C128.5735623 106.86727129 128.56989486 109.11309058 128.56152344 111.35888672 C128.55081828 114.78891696 128.56143303 118.21842347 128.57421875 121.6484375 C128.57289708 123.83463657 128.57033454 126.02083531 128.56640625 128.20703125 C128.57045471 129.2290564 128.57450317 130.25108154 128.57867432 131.30407715 C128.54536624 136.38244199 128.29566379 140.54717469 126.30078125 145.30078125 C125.88441406 146.48671875 125.46804687 147.67265625 125.0390625 148.89453125 C121.72165703 158.06067697 117.82770681 166.66695416 113.30078125 175.30078125 C112.63063558 176.6323694 111.96225484 177.964864 111.30078125 179.30078125 C110.64078125 179.30078125 109.98078125 179.30078125 109.30078125 179.30078125 C109.07648438 180.00589844 108.8521875 180.71101562 108.62109375 181.4375 C107.02148059 184.90648357 104.78265487 187.38487096 102.17578125 190.11328125 C101.68078125 190.63954102 101.18578125 191.16580078 100.67578125 191.70800781 C99.68038853 192.76206681 98.68142512 193.81276667 97.67871094 194.85986328 C96.50307664 196.08923848 95.34179421 197.33231159 94.18359375 198.578125 C80.70826749 212.69646475 62.79697426 221.69685587 44.30078125 227.30078125 C43.32608887 227.63924072 42.35139648 227.9777002 41.34716797 228.32641602 C36.39111954 229.73058369 31.44403597 229.58722211 26.328125 229.56640625 C25.28684952 229.5683197 24.24557404 229.57023315 23.17274475 229.57220459 C20.97998817 229.57356072 18.78722341 229.56990437 16.59448242 229.56152344 C13.24574714 229.55080515 9.89754696 229.56144394 6.54882812 229.57421875 C4.41275924 229.57289727 2.27669068 229.5703351 0.140625 229.56640625 C-1.35489647 229.57247894 -1.35489647 229.57247894 -2.88063049 229.57867432 C-7.90633314 229.54489461 -11.98432105 229.24360801 -16.69921875 227.30078125 C-17.73175781 227.01460937 -18.76429687 226.7284375 -19.828125 226.43359375 C-35.55509779 221.8174857 -50.47859096 213.21205607 -62.69921875 202.30078125 C-63.76013552 201.46543323 -64.82247127 200.63188173 -65.88671875 199.80078125 C-71.87007356 194.48224365 -77.37361752 188.05062054 -81.69921875 181.30078125 C-81.69921875 180.64078125 -81.69921875 179.98078125 -81.69921875 179.30078125 C-82.35921875 179.30078125 -83.01921875 179.30078125 -83.69921875 179.30078125 C-84.53741033 177.67828184 -85.36963035 176.05269628 -86.19921875 174.42578125 C-86.66328125 173.52085937 -87.12734375 172.6159375 -87.60546875 171.68359375 C-88.69921875 169.30078125 -88.69921875 169.30078125 -88.69921875 167.30078125 C-89.35921875 167.30078125 -90.01921875 167.30078125 -90.69921875 167.30078125 C-91.54083729 165.22078114 -92.37222638 163.13663979 -93.19921875 161.05078125 C-93.66328125 159.890625 -94.12734375 158.73046875 -94.60546875 157.53515625 C-95.69921875 154.30078125 -95.69921875 154.30078125 -95.69921875 150.30078125 C-96.35921875 150.30078125 -97.01921875 150.30078125 -97.69921875 150.30078125 C-97.89837891 149.23537109 -97.89837891 149.23537109 -98.1015625 148.1484375 C-98.27816406 147.22933594 -98.45476562 146.31023437 -98.63671875 145.36328125 C-98.81074219 144.44675781 -98.98476562 143.53023437 -99.1640625 142.5859375 C-99.47636863 140.34788281 -99.47636863 140.34788281 -100.69921875 139.30078125 C-100.80794852 137.82480183 -100.84825098 136.34369892 -100.86035156 134.86376953 C-100.86995911 133.91833282 -100.87956665 132.97289612 -100.88946533 131.99880981 C-100.89371521 130.96666351 -100.89796509 129.93451721 -100.90234375 128.87109375 C-100.90804382 127.81099091 -100.9137439 126.75088806 -100.9196167 125.65866089 C-100.92908997 123.40396121 -100.93560986 121.14924755 -100.93945312 118.89453125 C-100.94908017 115.47500557 -100.98004864 112.05610115 -101.01171875 108.63671875 C-101.01825653 106.44401398 -101.02350395 104.25130491 -101.02734375 102.05859375 C-101.03969055 101.04668976 -101.05203735 100.03478577 -101.0647583 98.99221802 C-101.035292 89.39994756 -98.74204659 81.09684519 -94.68359375 72.44921875 C-93.16443482 69.1335941 -91.94518126 65.72717815 -90.69921875 62.30078125 C-90.03921875 62.30078125 -89.37921875 62.30078125 -88.69921875 62.30078125 C-88.43109375 61.43453125 -88.16296875 60.56828125 -87.88671875 59.67578125 C-86.72809888 56.38286161 -85.31712036 53.3895025 -83.69921875 50.30078125 C-83.03921875 50.30078125 -82.37921875 50.30078125 -81.69921875 50.30078125 C-81.45816406 49.57761719 -81.21710938 48.85445312 -80.96875 48.109375 C-79.52527794 44.91597067 -77.78248944 42.91205914 -75.38671875 40.36328125 C-72.95323298 37.75627018 -70.61083449 35.18796312 -68.41015625 32.37890625 C-65.30874762 28.62387259 -61.540581 25.86160975 -57.63671875 22.98828125 C-56.92966797 22.45138672 -56.22261719 21.91449219 -55.49414062 21.36132812 C-52.23148116 18.93194882 -49.75055982 17.08687905 -45.69921875 16.30078125 C-45.69921875 15.64078125 -45.69921875 14.98078125 -45.69921875 14.30078125 C-36.18641386 9.65708976 -26.85794806 5.36814047 -16.69921875 2.30078125 C-15.46437744 1.79067505 -15.46437744 1.79067505 -14.20458984 1.27026367 C-9.43283855 -0.04946222 -4.928952 -0.00456317 0 0 Z " fill="#000000" transform="translate(100.69921875,-0.30078125)"/>
<path d="M0 0 C10.89 0 21.78 0 33 0 C32.34 1.65 31.68 3.3 31 5 C29.25684254 10.17468489 28.71582745 14.86646984 28.75708008 20.28686523 C28.75518173 21.08458344 28.75328339 21.88230164 28.75132751 22.70419312 C28.74764458 25.32242897 28.75829033 27.94038284 28.76953125 30.55859375 C28.77072482 32.39030424 28.77117584 34.22201534 28.7709198 36.0537262 C28.77248051 39.88587294 28.78073745 43.71792572 28.79418945 47.55004883 C28.81116646 52.44674681 28.8150038 57.3433416 28.81424427 62.24006557 C28.81451706 66.02086867 28.8200159 69.80164949 28.82724571 73.58244514 C28.8304139 75.38724665 28.83239543 77.19205065 28.83313942 78.99685478 C28.83532343 81.52585969 28.84411196 84.05475841 28.85473633 86.58374023 C28.85428314 87.32009201 28.85382996 88.05644379 28.85336304 88.81510925 C28.89586935 95.78413647 28.97733091 102.0534457 33 108 C33 108.66 33 109.32 33 110 C22.11 110 11.22 110 0 110 C0.66 108.35 1.32 106.7 2 105 C2.40417219 103.570428 2.78200684 102.13297118 3.125 100.6875 C3.41375 99.470625 3.7025 98.25375 4 97 C4.66 97 5.32 97 6 97 C5.91542483 86.20307905 5.8204753 75.40630308 5.71247292 64.60958958 C5.66263884 59.59562989 5.61630808 54.58168997 5.578125 49.56762695 C5.54110887 44.72404002 5.49470554 39.88062378 5.44193649 35.03718376 C5.42347899 33.19416247 5.40833953 31.35110471 5.39665604 29.50802803 C5.37964471 26.91606487 5.35057565 24.32448531 5.31884766 21.73266602 C5.31668747 20.97956146 5.31452728 20.22645691 5.31230164 19.45053101 C5.22925536 14.10062006 4.32826876 9.17778417 3 4 C2.34 4 1.68 4 1 4 C0.67 2.68 0.34 1.36 0 0 Z " fill="#F7F7F7" transform="translate(100,63)"/>
</svg>
