<?xml version="1.0" encoding="UTF-8"?>
<svg version="1.1" xmlns="http://www.w3.org/2000/svg" width="167" height="167">
<path d="M0 0 C2.15163154 1.64472173 4.20246938 3.35621481 6.2421875 5.13671875 C6.8403125 5.60464844 7.4384375 6.07257812 8.0546875 6.5546875 C23.16397159 18.59489826 32.00040339 37.40833062 35.2421875 56.13671875 C36.85648125 81.60248102 33.46667004 104.40461465 16.2421875 124.13671875 C15.77425781 124.73484375 15.30632812 125.33296875 14.82421875 125.94921875 C2.78400799 141.05850284 -16.02942437 149.89493464 -34.7578125 153.13671875 C-60.22357477 154.7510125 -83.0257084 151.36120129 -102.7578125 134.13671875 C-103.655 133.43482422 -103.655 133.43482422 -104.5703125 132.71875 C-119.67959659 120.67853924 -128.51602839 101.86510688 -131.7578125 83.13671875 C-133.37210625 57.67095648 -129.98229504 34.86882285 -112.7578125 15.13671875 C-112.28988281 14.53859375 -111.82195312 13.94046875 -111.33984375 13.32421875 C-85.1725264 -19.5131991 -33.35189929 -22.53379031 0 0 Z " fill="#FEFEFE" transform="translate(131.7578125,13.86328125)"/>
<path d="M0 0 C7.92 0 15.84 0 24 0 C23.01 2.64 22.02 5.28 21 8 C20.55755614 11.32745951 20.55755614 11.32745951 20.61181641 14.65625 C20.60235992 15.91115234 20.59290344 17.16605469 20.5831604 18.45898438 C20.58853098 19.80599284 20.59468415 21.15299839 20.6015625 22.5 C20.59953742 23.90429841 20.59662239 25.30859578 20.59286499 26.71289062 C20.58846197 29.6446339 20.5948068 32.57610148 20.60888672 35.5078125 C20.62597777 39.24668327 20.61612563 42.98490776 20.59816933 46.72375488 C20.58727634 49.62016581 20.59080291 52.51642608 20.5985527 55.4128418 C20.60053952 56.79060952 20.59814942 58.16839138 20.59111404 59.54614258 C20.58340895 61.47867535 20.59725385 63.41125674 20.61181641 65.34375 C20.61420319 66.43880859 20.61658997 67.53386719 20.61904907 68.66210938 C20.96486856 72.89054057 20.96486856 72.89054057 24 80 C16.08 80 8.16 80 0 80 C0.99 77.03 1.98 74.06 3 71 C3.43978337 67.61374211 3.43978337 67.61374211 3.38818359 64.32202148 C3.39764008 63.08721542 3.40709656 61.85240936 3.4168396 60.58018494 C3.41076691 59.27368484 3.40469421 57.96718475 3.3984375 56.62109375 C3.40046333 55.2406448 3.40337898 53.86019691 3.40713501 52.47975159 C3.41153302 49.60106107 3.40520866 46.72265171 3.39111328 43.84399414 C3.3740063 40.17352943 3.3838876 36.50372229 3.40183067 32.83328152 C3.41272357 29.98748408 3.40919741 27.14183999 3.4014473 24.29603767 C3.3985034 22.29097689 3.40753446 20.28590988 3.4168396 18.28086853 C3.40265488 16.43338768 3.40265488 16.43338768 3.38818359 14.54858398 C3.38579681 13.47430649 3.38341003 12.40002899 3.38095093 11.29319763 C3.03037043 7.10277896 3.03037043 7.10277896 0 0 Z " fill="#000000" transform="translate(73,46)"/>
</svg>
