<?xml version="1.0" encoding="UTF-8"?>
<svg version="1.1" xmlns="http://www.w3.org/2000/svg" width="71" height="71">
<path d="M0 0 C0.69416016 -0.020625 1.38832031 -0.04125 2.10351562 -0.0625 C4.12109375 -0.078125 4.12109375 -0.078125 7.5625 0.25 C9.5625 3.25 9.5625 3.25 9.5625 6.25 C10.17996094 6.07339844 10.79742187 5.89679687 11.43359375 5.71484375 C15.71302635 4.83550828 18.40983835 4.57372741 22.265625 6.8359375 C25.71770289 9.92978089 28.33581101 12.34159501 28.8984375 17.078125 C28.64963575 19.5661425 28.24940053 21.84835508 27.5625 24.25 C28.366875 24.394375 29.17125 24.53875 30 24.6875 C32.5625 25.25 32.5625 25.25 33.5625 26.25 C33.71563272 28.7442965 33.79406517 31.19188493 33.8125 33.6875 C33.833125 34.38166016 33.85375 35.07582031 33.875 35.79101562 C33.890625 37.80859375 33.890625 37.80859375 33.5625 41.25 C30.5625 43.25 30.5625 43.25 27.5625 43.25 C27.73910156 43.86746094 27.91570313 44.48492187 28.09765625 45.12109375 C28.97699172 49.40052635 29.23877259 52.09733835 26.9765625 55.953125 C23.88271911 59.40520289 21.47090499 62.02331101 16.734375 62.5859375 C14.2463575 62.33713575 11.96414492 61.93690053 9.5625 61.25 C9.418125 62.054375 9.27375 62.85875 9.125 63.6875 C8.5625 66.25 8.5625 66.25 7.5625 67.25 C5.0682035 67.40313272 2.62061507 67.48156517 0.125 67.5 C-0.56916016 67.520625 -1.26332031 67.54125 -1.97851562 67.5625 C-3.99609375 67.578125 -3.99609375 67.578125 -7.4375 67.25 C-9.4375 64.25 -9.4375 64.25 -9.4375 61.25 C-10.05496094 61.42660156 -10.67242188 61.60320313 -11.30859375 61.78515625 C-15.58802635 62.66449172 -18.28483835 62.92627259 -22.140625 60.6640625 C-25.59270289 57.57021911 -28.21081101 55.15840499 -28.7734375 50.421875 C-28.52463575 47.9338575 -28.12440053 45.65164492 -27.4375 43.25 C-28.241875 43.105625 -29.04625 42.96125 -29.875 42.8125 C-32.4375 42.25 -32.4375 42.25 -33.4375 41.25 C-33.59063272 38.7557035 -33.66906517 36.30811507 -33.6875 33.8125 C-33.708125 33.11833984 -33.72875 32.42417969 -33.75 31.70898438 C-33.765625 29.69140625 -33.765625 29.69140625 -33.4375 26.25 C-30.4375 24.25 -30.4375 24.25 -27.4375 24.25 C-27.61410156 23.63253906 -27.79070313 23.01507812 -27.97265625 22.37890625 C-28.85199172 18.09947365 -29.11377259 15.40266165 -26.8515625 11.546875 C-23.75771911 8.09479711 -21.34590499 5.47668899 -16.609375 4.9140625 C-14.1213575 5.16286425 -11.83914492 5.56309947 -9.4375 6.25 C-9.293125 5.445625 -9.14875 4.64125 -9 3.8125 C-7.89802887 -1.20759072 -4.40390045 0.03253112 0 0 Z M-3.4375 5.25 C-3.4375 6.9 -3.4375 8.55 -3.4375 10.25 C-4.324375 10.37375 -5.21125 10.4975 -6.125 10.625 C-9.3974763 11.10746402 -9.3974763 11.10746402 -12.0625 12.4375 C-14.4375 13.25 -14.4375 13.25 -16.75 12.375 C-17.306875 12.00375 -17.86375 11.6325 -18.4375 11.25 C-19.7575 12.57 -21.0775 13.89 -22.4375 15.25 C-22.045625 16.11625 -21.65375 16.9825 -21.25 17.875 C-20.22139283 22.14767595 -21.29314834 23.53862212 -23.4375 27.25 C-23.4375 28.24 -23.4375 29.23 -23.4375 30.25 C-25.0875 30.25 -26.7375 30.25 -28.4375 30.25 C-28.4375 32.56 -28.4375 34.87 -28.4375 37.25 C-26.7875 37.25 -25.1375 37.25 -23.4375 37.25 C-23.251875 38.5803125 -23.251875 38.5803125 -23.0625 39.9375 C-22.58003598 43.2099763 -22.58003598 43.2099763 -21.25 45.875 C-20.4375 48.25 -20.4375 48.25 -21.3125 50.5625 C-21.68375 51.119375 -22.055 51.67625 -22.4375 52.25 C-21.1175 53.57 -19.7975 54.89 -18.4375 56.25 C-17.138125 55.6621875 -17.138125 55.6621875 -15.8125 55.0625 C-11.53982405 54.03389283 -10.14887788 55.10564834 -6.4375 57.25 C-5.4475 57.25 -4.4575 57.25 -3.4375 57.25 C-3.4375 58.9 -3.4375 60.55 -3.4375 62.25 C-1.1275 62.25 1.1825 62.25 3.5625 62.25 C3.5625 60.6 3.5625 58.95 3.5625 57.25 C4.449375 57.12625 5.33625 57.0025 6.25 56.875 C9.5224763 56.39253598 9.5224763 56.39253598 12.1875 55.0625 C14.5625 54.25 14.5625 54.25 16.875 55.125 C17.431875 55.49625 17.98875 55.8675 18.5625 56.25 C19.8825 54.93 21.2025 53.61 22.5625 52.25 C21.9746875 50.950625 21.9746875 50.950625 21.375 49.625 C20.34639283 45.35232405 21.41814834 43.96137788 23.5625 40.25 C23.5625 39.26 23.5625 38.27 23.5625 37.25 C25.2125 37.25 26.8625 37.25 28.5625 37.25 C28.5625 34.94 28.5625 32.63 28.5625 30.25 C26.9125 30.25 25.2625 30.25 23.5625 30.25 C23.43875 29.363125 23.315 28.47625 23.1875 27.5625 C22.70503598 24.2900237 22.70503598 24.2900237 21.375 21.625 C20.5625 19.25 20.5625 19.25 21.4375 16.9375 C21.80875 16.380625 22.18 15.82375 22.5625 15.25 C21.2425 13.93 19.9225 12.61 18.5625 11.25 C17.263125 11.8378125 17.263125 11.8378125 15.9375 12.4375 C11.66482405 13.46610717 10.27387788 12.39435166 6.5625 10.25 C5.5725 10.25 4.5825 10.25 3.5625 10.25 C3.5625 8.6 3.5625 6.95 3.5625 5.25 C1.2525 5.25 -1.0575 5.25 -3.4375 5.25 Z " fill="#FFFFFF" transform="translate(35.4375,1.75)"/>
<path d="M0 0 C4.54882262 3.27515229 8.54018627 7.8117511 9.85546875 13.3359375 C10.65937765 19.85513621 9.72455058 24.96221274 5.85546875 30.3359375 C1.1133807 35.40390364 -3.44199043 38.32720877 -10.45703125 38.7109375 C-16.26831844 38.54683138 -20.66174454 36.65907717 -24.90625 32.6875 C-29.67293471 27.40144286 -31.65522818 22.82870523 -31.453125 15.671875 C-30.5791346 9.05609954 -27.01708405 4.53620057 -21.859375 0.5234375 C-15.04246045 -4.19715937 -7.13040972 -4.01352403 0 0 Z M-24.01953125 9.3984375 C-25.79083761 14.02351522 -25.78995648 18.45221993 -25.14453125 23.3359375 C-23.008066 27.76712469 -20.76875603 30.5649578 -16.14453125 32.3359375 C-10.65510313 33.10190421 -5.79372788 33.28633521 -1.08203125 30.0859375 C2.18342948 27.49911775 3.65323067 24.89270042 4.19140625 20.75 C4.27506929 14.77645881 4.10418041 10.92913929 -0.14453125 6.3359375 C-4.10516126 2.73536476 -8.35948784 2.83262868 -13.484375 2.984375 C-18.29561455 3.62022164 -20.85669754 5.91932042 -24.01953125 9.3984375 Z " fill="#FFFFFF" transform="translate(46.14453125,17.6640625)"/>
<path d="M0 0 C1.79244141 0.01740234 1.79244141 0.01740234 3.62109375 0.03515625 C5.41740234 0.04869141 5.41740234 0.04869141 7.25 0.0625 C8.17683594 0.07410156 9.10367188 0.08570313 10.05859375 0.09765625 C10.62109375 2.03515625 10.62109375 2.03515625 11.05859375 4.09765625 C10.05859375 5.09765625 10.05859375 5.09765625 7.1171875 5.1953125 C5.32474609 5.17791016 5.32474609 5.17791016 3.49609375 5.16015625 C1.69978516 5.14662109 1.69978516 5.14662109 -0.1328125 5.1328125 C-1.05964844 5.12121094 -1.98648437 5.10960937 -2.94140625 5.09765625 C-3.50390625 3.16015625 -3.50390625 3.16015625 -3.94140625 1.09765625 C-2.94140625 0.09765625 -2.94140625 0.09765625 0 0 Z " fill="#FFFFFF" transform="translate(31.94140625,41.90234375)"/>
<path d="M0 0 C1.79244141 0.01740234 1.79244141 0.01740234 3.62109375 0.03515625 C5.41740234 0.04869141 5.41740234 0.04869141 7.25 0.0625 C8.17683594 0.07410156 9.10367188 0.08570313 10.05859375 0.09765625 C10.62109375 2.03515625 10.62109375 2.03515625 11.05859375 4.09765625 C10.05859375 5.09765625 10.05859375 5.09765625 7.1171875 5.1953125 C5.32474609 5.17791016 5.32474609 5.17791016 3.49609375 5.16015625 C1.69978516 5.14662109 1.69978516 5.14662109 -0.1328125 5.1328125 C-1.05964844 5.12121094 -1.98648437 5.10960937 -2.94140625 5.09765625 C-3.50390625 3.16015625 -3.50390625 3.16015625 -3.94140625 1.09765625 C-2.94140625 0.09765625 -2.94140625 0.09765625 0 0 Z " fill="#FFFFFF" transform="translate(31.94140625,32.90234375)"/>
<path d="M0 0 C1.79244141 0.01740234 1.79244141 0.01740234 3.62109375 0.03515625 C5.41740234 0.04869141 5.41740234 0.04869141 7.25 0.0625 C8.17683594 0.07410156 9.10367188 0.08570312 10.05859375 0.09765625 C10.62109375 2.03515625 10.62109375 2.03515625 11.05859375 4.09765625 C10.05859375 5.09765625 10.05859375 5.09765625 7.1171875 5.1953125 C5.32474609 5.17791016 5.32474609 5.17791016 3.49609375 5.16015625 C1.69978516 5.14662109 1.69978516 5.14662109 -0.1328125 5.1328125 C-1.05964844 5.12121094 -1.98648437 5.10960937 -2.94140625 5.09765625 C-3.50390625 3.16015625 -3.50390625 3.16015625 -3.94140625 1.09765625 C-2.94140625 0.09765625 -2.94140625 0.09765625 0 0 Z " fill="#FFFFFF" transform="translate(31.94140625,23.90234375)"/>
</svg>
