<?xml version="1.0" encoding="UTF-8"?>
<svg version="1.1" xmlns="http://www.w3.org/2000/svg" width="583" height="167">
<path d="M0 0 C2.25638828 0.01386526 4.50860721 -0.02034022 6.76464844 -0.05834961 C28.84099805 -0.17409414 47.71424603 10.10366944 63.63964844 24.88891602 C72.19610098 33.974852 78.40484257 44.99259648 82.88964844 56.57641602 C83.16776367 57.2621167 83.44587891 57.94781738 83.73242188 58.65429688 C86.39067922 66.11464396 86.41391008 73.63915696 86.390625 81.46044922 C86.3896572 83.743247 86.43129311 86.02262047 86.47558594 88.30493164 C86.65702222 110.44943963 76.52995315 129.46650245 61.36621094 145.19360352 C45.77363509 160.23746701 26.09260644 167.94825683 4.58374023 168.00195312 C2.35578531 168.0137642 0.130686 168.0629651 -2.09667969 168.11352539 C-24.09795205 168.36341156 -43.08239549 158.13134494 -58.69238281 143.08813477 C-65.52481824 136.00381232 -70.69458989 128.32438056 -75.11035156 119.57641602 C-75.43084473 118.9610498 -75.75133789 118.34568359 -76.08154297 117.71166992 C-84.18829394 101.33097428 -84.27293531 75.96111152 -79.40966797 58.47753906 C-78.22932257 55.03154062 -76.78587643 51.80760325 -75.11035156 48.57641602 C-74.7888916 47.92914551 -74.46743164 47.281875 -74.13623047 46.61499023 C-63.30860735 25.31173368 -44.70369014 10.27644039 -22.25488281 2.41235352 C-14.80614483 0.19121135 -7.71057424 -0.06583824 0 0 Z " fill="#636363" transform="translate(81.1103515625,-0.576416015625)"/>
<path d="M0 0 C3.63 0 7.26 0 11 0 C10.83701416 0.83354004 10.67402832 1.66708008 10.50610352 2.52587891 C9.96132214 6.26550217 9.88722942 9.80735604 9.90234375 13.5859375 C9.90446617 14.63861313 9.90446617 14.63861313 9.90663147 15.71255493 C9.9121871 17.93341504 9.92473108 20.15417084 9.9375 22.375 C9.94252074 23.88932145 9.94708264 25.4036445 9.95117188 26.91796875 C9.96214193 30.61201252 9.97937551 34.30599606 10 38 C10.391875 37.525625 10.78375 37.05125 11.1875 36.5625 C13 35 13 35 15.52026367 34.68823242 C18.26582741 34.23897283 18.26582741 34.23897283 19.4855957 31.41137695 C19.87835693 30.28175537 20.27111816 29.15213379 20.67578125 27.98828125 C21.11083984 26.75529297 21.54589844 25.52230469 21.99414062 24.25195312 C22.21046143 23.60492432 22.42678223 22.95789551 22.6496582 22.29125977 C23.30685667 20.32934685 23.99505056 18.38065473 24.68945312 16.43164062 C26.7312382 10.52735086 28 6.3427652 28 0 C32.29 0 36.58 0 41 0 C40.5153125 0.91136719 40.030625 1.82273438 39.53125 2.76171875 C35.36629445 10.75022287 31.6966492 18.84878363 28.4375 27.25 C28.07914062 28.15451904 27.72078125 29.05903809 27.3515625 29.9909668 C26.86623047 31.27161011 26.86623047 31.27161011 26.37109375 32.578125 C25.9368811 33.71362793 25.9368811 33.71362793 25.49389648 34.87207031 C24.60311492 38.70996062 26.30275904 41.87924159 27.6875 45.4375 C30.1347911 52.02910886 31.97282314 58.77929905 33.80541992 65.56225586 C35.1287528 70.35839675 36.57623765 74.64873524 39 79 C35.7 79 32.4 79 29 79 C28.7733667 78.03175293 28.5467334 77.06350586 28.31323242 76.06591797 C27.4653095 72.45229377 26.60751928 68.84107068 25.74682617 65.23046875 C25.37664288 63.6715301 25.00908951 62.1119644 24.64428711 60.55175781 C24.11753091 58.30100691 23.58115827 56.05272832 23.04296875 53.8046875 C22.88346237 53.1138205 22.72395599 52.42295349 22.55961609 51.71115112 C21.53410204 47.47781827 20.2109579 43.76088196 18 40 C15.92309422 39.03955898 15.92309422 39.03955898 14 39 C10.25347954 43.56098143 9.87356518 47.04254639 9.8671875 52.8671875 C9.86589844 54.00027344 9.86460937 55.13335937 9.86328125 56.30078125 C9.86714844 57.48027344 9.87101562 58.65976563 9.875 59.875 C9.87113281 61.04675781 9.86726563 62.21851563 9.86328125 63.42578125 C9.86457031 64.56144531 9.86585938 65.69710937 9.8671875 66.8671875 C9.86831543 67.89956543 9.86944336 68.93194336 9.87060547 69.99560547 C10.00297307 73.06903123 10.43236242 75.97917598 11 79 C7.37 79 3.74 79 0 79 C0.16233124 78.14893677 0.32466248 77.29787354 0.49191284 76.42102051 C1.00339769 72.97712286 1.1270054 69.74357682 1.12939453 66.26367188 C1.13114685 65.61894424 1.13289917 64.97421661 1.13470459 64.30995178 C1.13907625 62.1961898 1.13620172 60.08251271 1.1328125 57.96875 C1.13348689 56.48954248 1.13445804 55.01033507 1.13571167 53.53112793 C1.1371823 50.43789612 1.13505453 47.34469328 1.13037109 44.25146484 C1.12467419 40.29730676 1.1279566 36.34321657 1.13394356 32.38906097 C1.13756632 29.33664442 1.1364027 26.28424383 1.13381577 23.23182678 C1.13315124 21.77425631 1.13395824 20.31668436 1.13629532 18.8591156 C1.13885008 16.81814771 1.1349417 14.77728801 1.12939453 12.73632812 C1.12859894 11.57750122 1.12780334 10.41867432 1.12698364 9.22473145 C1.00269594 6.068463 0.59124491 3.0997534 0 0 Z " fill="#000000" transform="translate(278,46)"/>
<path d="M0 0 C7.19520726 3.39396569 11.58551027 9.31036689 14.3125 16.625 C17.04462674 24.67151673 17.21485855 32.11537491 17.25 40.5625 C17.270625 41.77486328 17.29125 42.98722656 17.3125 44.23632812 C17.36492902 56.45884313 15.44454687 67.07393751 8 77 C5.375 79.5 5.375 79.5 3 81 C2.401875 81.4125 1.80375 81.825 1.1875 82.25 C-3.79302771 83.9576095 -8.37488047 83.55656516 -13.125 81.5 C-20.7967141 77.16773792 -23.66608589 70.11293676 -26.23828125 62.02734375 C-30.23719155 46.1342387 -30.03113929 26.01270758 -22.57421875 11.16015625 C-16.75519085 1.88279135 -10.77944056 -1.07029906 0 0 Z M-16 7 C-24.59964414 20.82291793 -22.62478954 42.25962914 -19.8125 57.6875 C-17.65518228 66.32685179 -14.74084893 74.10272823 -7 79 C-3.09074155 80.38452904 -1.65751698 80.30245781 2.125 78.5625 C8.53233614 72.85161344 10.1972774 65.31821298 11 57 C11.765514 40.84446498 12.00556932 19.94772861 1 7 C-2.08121038 4.4546523 -4.11208345 3.14496597 -8.0625 2.5 C-11.88878569 3.15128267 -13.32310939 4.18222041 -16 7 Z " fill="#000000" transform="translate(252,45)"/>
<path d="M0 0 C3.375 1.625 3.375 1.625 6 4 C6.50789063 4.45890625 7.01578125 4.9178125 7.5390625 5.390625 C9 6.875 9 6.875 11 10 C10.33743201 14.63797594 8.05394004 17.53886795 5 21 C4.75765625 20.26394531 4.5153125 19.52789062 4.265625 18.76953125 C1.53878885 9.98471632 1.53878885 9.98471632 -5 4 C-7.87306228 3.49904977 -7.87306228 3.49904977 -11 4 C-16.35838261 8.23686067 -18.93278502 13.34789314 -20 20 C-20.24875937 24.64313136 -20.23124404 29.28836644 -20.25 33.9375 C-20.270625 35.18080078 -20.29125 36.42410156 -20.3125 37.70507812 C-20.36814969 51.09578594 -18.81318974 66.88014808 -9 77 C-6.40841994 78.90049204 -5.19095883 79.00389712 -1.9375 78.9375 C1.1363497 78.2538042 1.1363497 78.2538042 2.8125 75.75 C6.22778894 67.84090983 6.62628138 55.56199102 3.8125 47.375 C1.85375958 43.72769026 -0.19792853 41.02926646 -3 38 C1.95 38 6.9 38 12 38 C12.0693672 42.10807974 12.1289454 46.2146423 12.16479492 50.32299805 C12.17975938 51.71662328 12.20013851 53.11020244 12.22631836 54.50366211 C12.56402462 72.95831626 12.56402462 72.95831626 7.58276367 78.60717773 C3.09908297 82.55278909 -0.83657915 83.37233787 -6.59375 83.26953125 C-12.39958576 82.61920224 -16.55187303 79.94887455 -20.25 75.5 C-29.66767098 61.77124257 -30.0406806 41.26339068 -27.31640625 25.3203125 C-25.24886779 15.45406439 -21.62501448 6.75000966 -13 1 C-9.04904013 -0.97547993 -4.306334 -0.43307325 0 0 Z " fill="#FFFFFF" transform="translate(204,45)"/>
<path d="M0 0 C4.29 0 8.58 0 13 0 C13.185625 1.423125 13.37125 2.84625 13.5625 4.3125 C14.74768136 11.02852769 17.1489205 17.20514974 19.61157227 23.53637695 C20.07067993 24.72493286 20.07067993 24.72493286 20.5390625 25.9375 C20.95986084 27.00291016 20.95986084 27.00291016 21.38916016 28.08984375 C22 30 22 30 22 33 C22.66 33 23.32 33 24 33 C24.10570312 32.319375 24.21140625 31.63875 24.3203125 30.9375 C25.12837433 27.44518679 26.47275478 24.28281847 27.875 21 C30.73886189 14.1108116 32.58889053 7.34024487 34 0 C36.64 0 39.28 0 42 0 C41.64228516 0.57685547 41.28457031 1.15371094 40.91601562 1.74804688 C29.03168632 19.92323556 29.03168632 19.92323556 25.37402344 40.56103516 C27.43796614 48.56917768 31.11958725 55.74181201 35 63 C35.74332789 64.55050178 36.47650131 66.10594999 37.1953125 67.66796875 C39.94228685 73.76736107 39.94228685 73.76736107 44 79 C40.37 79 36.74 79 33 79 C32.64172119 78.0713916 32.28344238 77.1427832 31.91430664 76.18603516 C30.58652453 72.74538391 29.25744867 69.30523367 27.92797852 65.86523438 C27.35242904 64.3754623 26.77723192 62.88555404 26.20239258 61.39550781 C25.37673758 59.25550123 24.54982241 57.11598536 23.72265625 54.9765625 C23.33667015 53.97491562 23.33667015 53.97491562 22.94288635 52.95303345 C21.58091011 49.42900913 21.58091011 49.42900913 20 46 C18.52744861 49.61938109 17.07466238 53.24639724 15.625 56.875 C15.2125 57.88820312 14.8 58.90140625 14.375 59.9453125 C11.8737936 66.23867053 10.04508182 72.30442249 9 79 C6.36 79 3.72 79 1 79 C1.36279053 78.43547119 1.72558105 77.87094238 2.09936523 77.28930664 C6.46788093 70.27991702 9.87131608 63.04659773 13.0625 55.4375 C13.58521484 54.27025391 14.10792969 53.10300781 14.64648438 51.90039062 C17.76709673 44.85193756 17.76709673 44.85193756 17.11328125 37.4453125 C16.43397185 35.95185977 15.72697413 34.47084021 15 33 C14.21956835 30.98254265 13.45225414 28.95998144 12.6953125 26.93359375 C11.84133755 24.767125 10.98451587 22.60177644 10.125 20.4375 C9.49271484 18.81038086 9.49271484 18.81038086 8.84765625 17.15039062 C6.39854221 10.98266765 3.71969569 5.49955008 0 0 Z " fill="#000000" transform="translate(511,46)"/>
<path d="M0 0 C4.29 0 8.58 0 13 0 C13.185625 1.423125 13.37125 2.84625 13.5625 4.3125 C14.74768136 11.02852769 17.1489205 17.20514974 19.61157227 23.53637695 C20.07067993 24.72493286 20.07067993 24.72493286 20.5390625 25.9375 C20.95986084 27.00291016 20.95986084 27.00291016 21.38916016 28.08984375 C22 30 22 30 22 33 C22.66 33 23.32 33 24 33 C24.10570312 32.319375 24.21140625 31.63875 24.3203125 30.9375 C25.12837433 27.44518679 26.47275478 24.28281847 27.875 21 C30.73886189 14.1108116 32.58889053 7.34024487 34 0 C36.64 0 39.28 0 42 0 C41.64228516 0.57685547 41.28457031 1.15371094 40.91601562 1.74804688 C29.03168632 19.92323556 29.03168632 19.92323556 25.37402344 40.56103516 C27.43796614 48.56917768 31.11958725 55.74181201 35 63 C35.74332789 64.55050178 36.47650131 66.10594999 37.1953125 67.66796875 C39.94228685 73.76736107 39.94228685 73.76736107 44 79 C40.37 79 36.74 79 33 79 C32.64172119 78.0713916 32.28344238 77.1427832 31.91430664 76.18603516 C30.58652453 72.74538391 29.25744867 69.30523367 27.92797852 65.86523438 C27.35242904 64.3754623 26.77723192 62.88555404 26.20239258 61.39550781 C25.37673758 59.25550123 24.54982241 57.11598536 23.72265625 54.9765625 C23.33667015 53.97491562 23.33667015 53.97491562 22.94288635 52.95303345 C21.58091011 49.42900913 21.58091011 49.42900913 20 46 C18.52744861 49.61938109 17.07466238 53.24639724 15.625 56.875 C15.2125 57.88820312 14.8 58.90140625 14.375 59.9453125 C11.8737936 66.23867053 10.04508182 72.30442249 9 79 C6.36 79 3.72 79 1 79 C1.36279053 78.43547119 1.72558105 77.87094238 2.09936523 77.28930664 C6.46788093 70.27991702 9.87131608 63.04659773 13.0625 55.4375 C13.58521484 54.27025391 14.10792969 53.10300781 14.64648438 51.90039062 C17.76709673 44.85193756 17.76709673 44.85193756 17.11328125 37.4453125 C16.43397185 35.95185977 15.72697413 34.47084021 15 33 C14.21956835 30.98254265 13.45225414 28.95998144 12.6953125 26.93359375 C11.84133755 24.767125 10.98451587 22.60177644 10.125 20.4375 C9.49271484 18.81038086 9.49271484 18.81038086 8.84765625 17.15039062 C6.39854221 10.98266765 3.71969569 5.49955008 0 0 Z " fill="#000000" transform="translate(418,46)"/>
<path d="M0 0 C3.63 0 7.26 0 11 0 C10.83865067 0.86751892 10.67730133 1.73503784 10.51106262 2.62884521 C10.03207832 5.78839975 9.85427108 8.7469313 9.82299805 11.93847656 C9.81016281 13.08697083 9.79732758 14.23546509 9.78410339 15.41876221 C9.77671646 16.64697693 9.76932953 17.87519165 9.76171875 19.140625 C9.753647 20.41798523 9.74557526 21.69534546 9.73725891 23.01141357 C9.72228799 25.71122092 9.71242353 28.41100253 9.70483398 31.11083984 C9.69378928 34.54472852 9.65938934 37.97796576 9.61966228 41.41162491 C9.58700639 44.7170967 9.5827025 48.02250454 9.57421875 51.328125 C9.55671066 52.5482428 9.53920258 53.7683606 9.52116394 55.02545166 C9.53955171 62.32321131 10.25877932 68.59909147 14 75 C17.48742359 77.83860059 20.20087856 78.21011133 24.5625 78 C29.07627834 77.29329733 31.2546019 75.74372468 34 72 C38.67584817 62.18071884 37.18631734 49.04494471 37.18530273 38.38647461 C37.18748083 35.8349517 37.20567334 33.28386828 37.22460938 30.73242188 C37.25898089 20.32163019 36.58272569 10.29713264 35 0 C37.64 0 40.28 0 43 0 C42.67708984 0.90451904 42.35417969 1.80903809 42.02148438 2.7409668 C40.49189311 8.12883239 40.68260088 13.58341487 40.65625 19.14453125 C40.6416272 20.30949631 40.62700439 21.47446136 40.61193848 22.67472839 C40.56559462 26.38728431 40.5313187 30.09978881 40.5 33.8125 C40.45864313 38.6942018 40.40487255 43.57554132 40.34375 48.45703125 C40.3384729 49.5646431 40.3331958 50.67225494 40.32775879 51.81343079 C40.20876046 61.19692288 39.70089482 70.24044871 34 78 C28.73816363 82.07792318 22.36023449 81.63777077 16 81 C11.21559797 79.37672074 8.72682681 77.23128298 6 73 C1.54168755 63.42288437 1.86359233 53.03243293 1.71875 42.63671875 C1.69113586 41.08329521 1.69113586 41.08329521 1.66296387 39.49848938 C1.58510257 35.11782031 1.51646007 30.73702207 1.44775391 26.35620117 C1.39589102 23.13713361 1.33873696 19.91819002 1.28125 16.69921875 C1.26767456 15.71475266 1.25409912 14.73028656 1.2401123 13.71598816 C1.15567331 9.04368883 0.95099825 4.59568944 0 0 Z " fill="#000000" transform="translate(326,46)"/>
<path d="M0 0 C3.63 0 7.26 0 11 0 C10.75748505 1.27512199 10.75748505 1.27512199 10.5100708 2.57600403 C9.99530838 6.03149383 9.85928338 9.29190826 9.83886719 12.78393555 C9.83390228 13.43348206 9.82893738 14.08302856 9.82382202 14.7522583 C9.80932856 16.88042286 9.80242372 19.00851316 9.796875 21.13671875 C9.7911175 22.623113 9.78535985 24.10950724 9.77960205 25.59590149 C9.76913182 28.70171451 9.7632617 31.80750192 9.75976562 34.91333008 C9.7542576 38.8948126 9.73016438 42.87595716 9.70179367 46.85733318 C9.68319404 49.92250067 9.67796336 52.98758578 9.67642975 56.05280495 C9.67340184 57.52124716 9.66536861 58.98968788 9.65224457 60.45807457 C9.63522254 62.50706513 9.63705298 64.55521582 9.64355469 66.60424805 C9.63990906 67.76973679 9.63626343 68.93522552 9.63250732 70.1360321 C9.76741316 72.99199055 9.76741316 72.99199055 11.35308838 74.87483215 C15.15218538 77.47037021 20.62130006 76.42393249 25 76 C29.78337371 74.34756181 32.59751232 71.70270718 36 68 C35.67 71.63 35.34 75.26 35 79 C23.45 79 11.9 79 0 79 C0.33 77.02 0.66 75.04 1 73 C1.08836898 70.75588231 1.12785264 68.50952826 1.12939453 66.26367188 C1.13114685 65.61894424 1.13289917 64.97421661 1.13470459 64.30995178 C1.13907625 62.1961898 1.13620172 60.08251271 1.1328125 57.96875 C1.13348689 56.48954248 1.13445804 55.01033507 1.13571167 53.53112793 C1.1371823 50.43789612 1.13505453 47.34469328 1.13037109 44.25146484 C1.12467419 40.29730676 1.1279566 36.34321657 1.13394356 32.38906097 C1.13756632 29.33664442 1.1364027 26.28424383 1.13381577 23.23182678 C1.13315124 21.77425631 1.13395824 20.31668436 1.13629532 18.8591156 C1.13885008 16.81814771 1.1349417 14.77728801 1.12939453 12.73632812 C1.12859894 11.57750122 1.12780334 10.41867432 1.12698364 9.22473145 C1.00269594 6.068463 0.59124491 3.0997534 0 0 Z " fill="#000000" transform="translate(469,46)"/>
<path d="M0 0 C3.63 0 7.26 0 11 0 C10.75748505 1.27512199 10.75748505 1.27512199 10.5100708 2.57600403 C9.99530838 6.03149383 9.85928338 9.29190826 9.83886719 12.78393555 C9.83390228 13.43348206 9.82893738 14.08302856 9.82382202 14.7522583 C9.80932856 16.88042286 9.80242372 19.00851316 9.796875 21.13671875 C9.7911175 22.623113 9.78535985 24.10950724 9.77960205 25.59590149 C9.76913182 28.70171451 9.7632617 31.80750192 9.75976562 34.91333008 C9.7542576 38.8948126 9.73016438 42.87595716 9.70179367 46.85733318 C9.68319404 49.92250067 9.67796336 52.98758578 9.67642975 56.05280495 C9.67340184 57.52124716 9.66536861 58.98968788 9.65224457 60.45807457 C9.63522254 62.50706513 9.63705298 64.55521582 9.64355469 66.60424805 C9.63990906 67.76973679 9.63626343 68.93522552 9.63250732 70.1360321 C9.76741316 72.99199055 9.76741316 72.99199055 11.35308838 74.87483215 C15.15218538 77.47037021 20.62130006 76.42393249 25 76 C29.78337371 74.34756181 32.59751232 71.70270718 36 68 C35.67 71.63 35.34 75.26 35 79 C23.45 79 11.9 79 0 79 C0.33 77.02 0.66 75.04 1 73 C1.08836898 70.75588231 1.12785264 68.50952826 1.12939453 66.26367188 C1.13114685 65.61894424 1.13289917 64.97421661 1.13470459 64.30995178 C1.13907625 62.1961898 1.13620172 60.08251271 1.1328125 57.96875 C1.13348689 56.48954248 1.13445804 55.01033507 1.13571167 53.53112793 C1.1371823 50.43789612 1.13505453 47.34469328 1.13037109 44.25146484 C1.12467419 40.29730676 1.1279566 36.34321657 1.13394356 32.38906097 C1.13756632 29.33664442 1.1364027 26.28424383 1.13381577 23.23182678 C1.13315124 21.77425631 1.13395824 20.31668436 1.13629532 18.8591156 C1.13885008 16.81814771 1.1349417 14.77728801 1.12939453 12.73632812 C1.12859894 11.57750122 1.12780334 10.41867432 1.12698364 9.22473145 C1.00269594 6.068463 0.59124491 3.0997534 0 0 Z " fill="#000000" transform="translate(377,46)"/>
<path d="M0 0 C3.63 0 7.26 0 11 0 C10.67547852 1.53317871 10.35095703 3.06635742 10.01660156 4.64599609 C8.80522748 11.34140887 8.71157711 17.87533851 8.734375 24.6640625 C8.73150482 26.57304825 8.73150482 26.57304825 8.72857666 28.52059937 C8.72722309 31.19486468 8.72983572 33.86875736 8.73925781 36.54296875 C8.75067414 39.94636029 8.74406197 43.349437 8.73211288 46.75281715 C8.72309511 50.0357431 8.72943165 53.31863242 8.734375 56.6015625 C8.73032654 57.81115631 8.72627808 59.02075012 8.72210693 60.26699829 C8.75824276 66.8302693 9.29645083 72.65525209 11 79 C7.37 79 3.74 79 0 79 C0.32452148 77.79134277 0.64904297 76.58268555 0.98339844 75.33740234 C2.35961101 69.10711961 2.28689625 62.95695574 2.265625 56.6015625 C2.26753845 55.33081879 2.2694519 54.06007507 2.27142334 52.75082397 C2.2727794 50.07299948 2.2701437 47.39554465 2.26074219 44.71777344 C2.24937198 41.31676284 2.25590432 37.91606888 2.26788712 34.51506996 C2.27693181 31.23139016 2.27056205 27.94774647 2.265625 24.6640625 C2.26967346 23.45851715 2.27372192 22.2529718 2.27789307 21.01089478 C2.2381824 13.75862243 1.50251989 7.09854854 0 0 Z " fill="#FCFCFC" transform="translate(80,46)"/>
<path d="M0 0 C1.60572994 2.95180994 2.50399458 5.74613769 3.3125 9 C4.57443299 13.41026066 5.93914033 15.58543479 10 18 C8.8553125 18.4640625 8.8553125 18.4640625 7.6875 18.9375 C2.833907 22.66235044 1.94385645 29.14809 1 35 C0.67 35 0.34 35 0 35 C-0.12117187 34.25234375 -0.24234375 33.5046875 -0.3671875 32.734375 C-0.53476563 31.74953125 -0.70234375 30.7646875 -0.875 29.75 C-1.03742188 28.77546875 -1.19984375 27.8009375 -1.3671875 26.796875 C-1.95727465 24.18883551 -2.56885648 22.24893982 -4 20 C-6.53770003 18.71745356 -6.53770003 18.71745356 -9 18 C-8.236875 17.46375 -7.47375 16.9275 -6.6875 16.375 C-1.40031362 11.70260274 -0.57839426 6.70937337 0 0 Z " fill="#000000" transform="translate(246,69)"/>
</svg>
